<svg width="16" height="16" viewBox="0 0 16 16" fill="none" xmlns="http://www.w3.org/2000/svg">
    <path d="M8.00006 0.25C3.71881 0.25 0.250061 3.71875 0.250061 8C0.250061 12.2812 3.71881 15.75 8.00006 15.75C12.2813 15.75 15.7501 12.2812 15.7501 8C15.7501 3.71875 12.2813 0.25 8.00006 0.25ZM12.5001 8.875C12.5001 9.08125 12.3313 9.25 12.1251 9.25H9.25006V12.125C9.25006 12.3313 9.08131 12.5 8.87506 12.5H7.12506C6.91881 12.5 6.75006 12.3313 6.75006 12.125V9.25H3.87506C3.66881 9.25 3.50006 9.08125 3.50006 8.875V7.125C3.50006 6.91875 3.66881 6.75 3.87506 6.75H6.75006V3.875C6.75006 3.66875 6.91881 3.5 7.12506 3.5H8.87506C9.08131 3.5 9.25006 3.66875 9.25006 3.875V6.75H12.1251C12.3313 6.75 12.5001 6.91875 12.5001 7.125V8.875Z" fill="url(#paint0_linear_726_8595)"/>
    <defs>
        <linearGradient id="paint0_linear_726_8595" x1="7.5" y1="0.500001" x2="11.056" y2="15.136" gradientUnits="userSpaceOnUse">
            <stop stop-color="#17DAFB"/>
            <stop offset="1" stop-color="#2262C2"/>
        </linearGradient>
    </defs>
</svg>