<svg width="16" height="16" viewBox="0 0 16 16" fill="none" xmlns="http://www.w3.org/2000/svg">
    <path d="M8 0.25C3.71875 0.25 0.25 3.71875 0.25 8C0.25 12.2812 3.71875 15.75 8 15.75C12.2812 15.75 15.75 12.2812 15.75 8C15.75 3.71875 12.2812 0.25 8 0.25ZM12.5 8.875C12.5 9.08125 12.3313 9.25 12.125 9.25H9.25V12.125C9.25 12.3313 9.08125 12.5 8.875 12.5H7.125C6.91875 12.5 6.75 12.3313 6.75 12.125V9.25H3.875C3.66875 9.25 3.5 9.08125 3.5 8.875V7.125C3.5 6.91875 3.66875 6.75 3.875 6.75H6.75V3.875C6.75 3.66875 6.91875 3.5 7.125 3.5H8.875C9.08125 3.5 9.25 3.66875 9.25 3.875V6.75H12.125C12.3313 6.75 12.5 6.91875 12.5 7.125V8.875Z" fill="url(#paint0_linear_724_8289)"/>
    <defs>
        <linearGradient id="paint0_linear_724_8289" x1="-1.2735" y1="8" x2="13.6121" y2="8.74273" gradientUnits="userSpaceOnUse">
            <stop stop-color="#FAEA6A"/>
            <stop offset="1" stop-color="#F1A095"/>
        </linearGradient>
    </defs>
</svg>