<svg width="41" height="41" viewBox="0 0 41 41" fill="none" xmlns="http://www.w3.org/2000/svg">
    <path d="M3.87256 12.7627V28.4427C3.87256 29.4507 4.40056 30.3627 5.28056 30.8747L18.8646 38.7147C19.7286 39.2107 20.8006 39.2107 21.6646 38.7147L35.2486 30.8747C36.1126 30.3787 36.6566 29.4507 36.6566 28.4427V12.7627C36.6566 11.7547 36.1286 10.8427 35.2486 10.3307L21.6646 2.49066C20.8006 1.99466 19.7286 1.99466 18.8646 2.49066L5.28056 10.3307C4.41656 10.8267 3.88856 11.7547 3.88856 12.7627H3.87256Z" fill="#213147"/>
    <path d="M23.2196 23.6426L21.2836 28.9546C21.2356 29.0986 21.2356 29.2586 21.2836 29.4186L24.6116 38.5546L28.4676 36.3306L23.8436 23.6426C23.7316 23.3546 23.3316 23.3546 23.2196 23.6426Z" fill="#12AAFF"/>
    <path d="M27.1077 14.7146C26.9957 14.4266 26.5957 14.4266 26.4837 14.7146L24.5477 20.0266C24.4997 20.1706 24.4997 20.3306 24.5477 20.4906L30.0037 35.4506L33.8597 33.2266L27.1077 14.7306V14.7146Z" fill="#12AAFF"/>
    <path d="M20.2573 3.08265C20.3533 3.08265 20.4493 3.11465 20.5293 3.16265L35.2173 11.6426C35.3933 11.7386 35.4893 11.9306 35.4893 12.1226V29.0826C35.4893 29.2746 35.3773 29.4666 35.2173 29.5626L20.5293 38.0426C20.4493 38.0906 20.3533 38.1226 20.2573 38.1226C20.1613 38.1226 20.0653 38.0906 19.9853 38.0426L5.2973 29.5626C5.1213 29.4666 5.0253 29.2746 5.0253 29.0826V12.1066C5.0253 11.9146 5.1373 11.7226 5.2973 11.6266L19.9853 3.14665C20.0653 3.09865 20.1613 3.06665 20.2573 3.06665V3.08265ZM20.2573 0.602646C19.7293 0.602646 19.2173 0.730646 18.7373 1.00265L4.0493 9.48265C3.1053 10.0266 2.5293 11.0186 2.5293 12.1066V29.0666C2.5293 30.1546 3.1053 31.1466 4.0493 31.6906L18.7373 40.1706C19.2013 40.4426 19.7293 40.5706 20.2573 40.5706C20.7853 40.5706 21.2973 40.4426 21.7773 40.1706L36.4653 31.6906C37.4093 31.1466 37.9853 30.1546 37.9853 29.0666V12.1066C37.9853 11.0186 37.4093 10.0266 36.4653 9.48265L21.7613 1.00265C21.2973 0.730646 20.7693 0.602646 20.2413 0.602646H20.2573Z" fill="#9DCCED"/>
    <path d="M10.5293 35.4667L11.8893 31.7547L14.6093 34.0107L12.0653 36.3467L10.5293 35.4667Z" fill="#213147"/>
    <path d="M19.0103 10.9066H15.2823C15.0103 10.9066 14.7543 11.0826 14.6583 11.3386L6.67432 33.2266L10.5303 35.4506L19.3303 11.3386C19.4103 11.1146 19.2503 10.8906 19.0263 10.8906L19.0103 10.9066Z" fill="white"/>
    <path d="M25.5384 10.9066H21.8104C21.5384 10.9066 21.2824 11.0826 21.1864 11.3386L12.0664 36.3306L15.9224 38.5546L25.8424 11.3386C25.9224 11.1146 25.7624 10.8906 25.5384 10.8906V10.9066Z" fill="white"/>
</svg>