<svg width="80" height="64" viewBox="0 0 80 64" fill="none" xmlns="http://www.w3.org/2000/svg">
    <path d="M50.1652 32.1071C50.1652 43.6777 41.7653 54.5148 30.2894 57.6855C29.5085 57.8984 28.6567 57.8984 27.8758 57.6855C16.3999 54.5148 8 43.6777 8 32.1071V21.7196C8 19.7794 9.46706 17.5788 11.289 16.8453L24.4685 11.4505C27.4262 10.2438 30.7626 10.2438 33.7203 11.4505L46.8999 16.8453C48.6982 17.5788 50.1889 19.7794 50.1889 21.7196L50.1652 32.1071Z" fill="#3F9FF5" stroke="#2F6FA9" stroke-width="2.18182" stroke-linecap="round" stroke-linejoin="round"/>
    <path d="M21.1834 34.6077H25.319V44.2442C25.319 45.6629 27.0857 46.3321 28.0226 45.2614L38.1543 33.7511C39.0377 32.7473 38.3283 31.1814 36.9899 31.1814H32.8543V21.5448C32.8543 20.1261 31.0875 19.4569 30.1507 20.5277L20.019 32.0379C19.149 33.0417 19.8584 34.6077 21.1834 34.6077Z" fill="#3F87C7"/>
    <rect x="34.5454" width="45.4545" height="21.8182" rx="10.9091" fill="#FF4260"/>
    <path d="M50.9421 5.33058V15.9091H49.7025L43.938 7.6033H43.8347V15.9091H42.5537V5.33058H43.7934L49.5785 13.657H49.6818V5.33058H50.9421ZM56.6666 16.0744C55.9021 16.0744 55.2427 15.9056 54.6883 15.5682C54.1373 15.2273 53.712 14.7521 53.4124 14.1426C53.1163 13.5296 52.9682 12.8168 52.9682 12.0041C52.9682 11.1915 53.1163 10.4752 53.4124 9.85537C53.712 9.23209 54.1287 8.74655 54.6624 8.39876C55.1996 8.04752 55.8263 7.8719 56.5426 7.8719C56.9558 7.8719 57.3639 7.94077 57.7668 8.07851C58.1697 8.21625 58.5364 8.44008 58.867 8.75C59.1976 9.05647 59.461 9.46281 59.6573 9.96901C59.8535 10.4752 59.9517 11.0985 59.9517 11.8388V12.3554H53.836V11.3016H58.712C58.712 10.854 58.6225 10.4545 58.4434 10.1033C58.2678 9.75206 58.0164 9.47486 57.6893 9.27169C57.3656 9.06852 56.9834 8.96694 56.5426 8.96694C56.0571 8.96694 55.6369 9.08746 55.2823 9.32851C54.931 9.56611 54.6607 9.87603 54.4713 10.2583C54.2819 10.6405 54.1872 11.0503 54.1872 11.4876V12.1901C54.1872 12.7893 54.2905 13.2972 54.4971 13.7138C54.7072 14.1271 54.9982 14.4421 55.3701 14.6591C55.742 14.8726 56.1741 14.9793 56.6666 14.9793C56.9868 14.9793 57.2761 14.9346 57.5343 14.845C57.796 14.7521 58.0216 14.6143 58.211 14.4318C58.4004 14.2459 58.5467 14.0151 58.65 13.7397L59.8277 14.0702C59.7037 14.4697 59.4954 14.8209 59.2027 15.124C58.91 15.4236 58.5484 15.6577 58.118 15.8264C57.6876 15.9917 57.2037 16.0744 56.6666 16.0744ZM63.6035 15.9091L61.1862 7.9752H62.4672L64.1821 14.0496H64.2647L65.9589 7.9752H67.2606L68.9341 14.0289H69.0168L70.7316 7.9752H72.0126L69.5953 15.9091H68.3969L66.6614 9.81405H66.5374L64.8019 15.9091H63.6035Z" fill="white"/>
</svg>