<svg width="20" height="20" viewBox="0 0 20 20" fill="none" xmlns="http://www.w3.org/2000/svg">
    <path d="M16.6416 8.33334H3.30829V15C3.30829 17.5 4.14162 18.3333 6.64162 18.3333H13.3083C15.8083 18.3333 16.6416 17.5 16.6416 15V8.33334Z" stroke="#292D32" stroke-width="1.25" stroke-miterlimit="10" stroke-linecap="round" stroke-linejoin="round"/>
    <path d="M17.9166 5.83333V6.66666C17.9166 7.58333 17.475 8.33333 16.25 8.33333H3.74998C2.47498 8.33333 2.08331 7.58333 2.08331 6.66666V5.83333C2.08331 4.91666 2.47498 4.16666 3.74998 4.16666H16.25C17.475 4.16666 17.9166 4.91666 17.9166 5.83333Z" stroke="#292D32" stroke-width="1.25" stroke-miterlimit="10" stroke-linecap="round" stroke-linejoin="round"/>
    <path d="M9.70004 4.16667H5.10004C4.81671 3.85834 4.82504 3.38334 5.12504 3.08334L6.30838 1.9C6.61671 1.59167 7.12504 1.59167 7.43338 1.9L9.70004 4.16667Z" stroke="#292D32" stroke-width="1.25" stroke-miterlimit="10" stroke-linecap="round" stroke-linejoin="round"/>
    <path d="M14.8916 4.16667H10.2916L12.5583 1.9C12.8666 1.59167 13.375 1.59167 13.6833 1.9L14.8666 3.08334C15.1666 3.38334 15.175 3.85834 14.8916 4.16667Z" stroke="#292D32" stroke-width="1.25" stroke-miterlimit="10" stroke-linecap="round" stroke-linejoin="round"/>
    <path d="M7.45001 8.33334V12.6167C7.45001 13.2833 8.18335 13.675 8.74168 13.3167L9.52501 12.8C9.80835 12.6167 10.1667 12.6167 10.4417 12.8L11.1833 13.3C11.7333 13.6667 12.475 13.275 12.475 12.6083V8.33334H7.45001Z" stroke="#292D32" stroke-width="1.25" stroke-miterlimit="10" stroke-linecap="round" stroke-linejoin="round"/>
</svg>