<svg width="20" height="20" viewBox="0 0 20 20" fill="none" xmlns="http://www.w3.org/2000/svg">
    <path d="M7.91669 11.4583C7.91669 12.2667 8.5417 12.9167 9.30836 12.9167H10.875C11.5417 12.9167 12.0834 12.35 12.0834 11.6417C12.0834 10.8833 11.75 10.6083 11.2584 10.4333L8.75002 9.55833C8.25835 9.38333 7.92503 9.11667 7.92503 8.35C7.92503 7.65 8.46668 7.075 9.13335 7.075H10.7C11.4667 7.075 12.0917 7.725 12.0917 8.53334" stroke="#292D32" stroke-width="1.25" stroke-linecap="round" stroke-linejoin="round"/>
    <path d="M10 6.25V13.75" stroke="#292D32" stroke-width="1.25" stroke-linecap="round" stroke-linejoin="round"/>
    <path d="M18.3334 10C18.3334 14.6 14.6 18.3333 10 18.3333C5.40002 18.3333 1.66669 14.6 1.66669 10C1.66669 5.4 5.40002 1.66667 10 1.66667" stroke="#292D32" stroke-width="1.25" stroke-linecap="round" stroke-linejoin="round"/>
    <path d="M14.1667 2.5V5.83333H17.5" stroke="#292D32" stroke-width="1.25" stroke-linecap="round" stroke-linejoin="round"/>
    <path d="M18.3334 1.66667L14.1667 5.83333" stroke="#292D32" stroke-width="1.25" stroke-linecap="round" stroke-linejoin="round"/>
</svg>