<svg width="24" height="25" viewBox="0 0 24 25" fill="none" xmlns="http://www.w3.org/2000/svg">
    <path d="M9.88806 10.2471C9.20406 10.2471 8.66406 10.8471 8.66406 11.5791C8.66406 12.3111 9.21606 12.9111 9.88806 12.9111C10.5721 12.9111 11.1121 12.3111 11.1121 11.5791C11.1241 10.8471 10.5721 10.2471 9.88806 10.2471ZM14.2681 10.2471C13.5841 10.2471 13.0441 10.8471 13.0441 11.5791C13.0441 12.3111 13.5961 12.9111 14.2681 12.9111C14.9521 12.9111 15.4921 12.3111 15.4921 11.5791C15.4921 10.8471 14.9521 10.2471 14.2681 10.2471Z" fill="white"/>
    <path d="M20.1005 0.179077H4.02055C2.66455 0.179077 1.56055 1.28308 1.56055 2.65108V18.8751C1.56055 20.2431 2.66455 21.3471 4.02055 21.3471H17.6285L16.9925 19.1271L18.5285 20.5551L19.9805 21.8991L22.5605 24.1791V2.65108C22.5605 1.28308 21.4565 0.179077 20.1005 0.179077ZM15.4685 15.8511C15.4685 15.8511 15.0365 15.3351 14.6765 14.8791C16.2485 14.4351 16.8485 13.4511 16.8485 13.4511C16.3565 13.7751 15.8885 14.0031 15.4685 14.1591C14.8685 14.4111 14.2925 14.5791 13.7285 14.6751C12.5765 14.8911 11.5205 14.8311 10.6205 14.6631C9.93655 14.5311 9.34855 14.3391 8.85655 14.1471C8.58055 14.0391 8.28055 13.9071 7.98055 13.7391C7.94455 13.7151 7.90855 13.7031 7.87255 13.6791C7.84855 13.6671 7.83655 13.6551 7.82455 13.6431C7.60855 13.5231 7.48855 13.4391 7.48855 13.4391C7.48855 13.4391 8.06455 14.3991 9.58855 14.8551C9.22855 15.3111 8.78455 15.8511 8.78455 15.8511C6.13255 15.7671 5.12455 14.0271 5.12455 14.0271C5.12455 10.1631 6.85255 7.03108 6.85255 7.03108C8.58055 5.73508 10.2245 5.77108 10.2245 5.77108L10.3445 5.91508C8.18455 6.53908 7.18855 7.48708 7.18855 7.48708C7.18855 7.48708 7.45255 7.34308 7.89655 7.13908C9.18055 6.57508 10.2005 6.41908 10.6205 6.38308C10.6925 6.37108 10.7525 6.35908 10.8245 6.35908C11.5565 6.26308 12.3845 6.23908 13.2485 6.33508C14.3885 6.46708 15.6125 6.80308 16.8605 7.48708C16.8605 7.48708 15.9125 6.58708 13.8725 5.96308L14.0405 5.77108C14.0405 5.77108 15.6845 5.73508 17.4125 7.03108C17.4125 7.03108 19.1405 10.1631 19.1405 14.0271C19.1405 14.0271 18.1205 15.7671 15.4685 15.8511Z" fill="white"/>
</svg>