<svg width="80" height="80" viewBox="0 0 80 80" fill="none" xmlns="http://www.w3.org/2000/svg">
    <path d="M39.9781 80.0329C62.0575 80.0329 79.9563 62.1096 79.9563 40.0001C79.9563 17.8906 62.0575 -0.032753 39.9781 -0.032753C17.8988 -0.032753 0 17.8906 0 40.0001C0 62.1096 17.8988 80.0329 39.9781 80.0329Z" fill="#627EEA"/>
    <path d="M39.7324 9.96993V32.1642L58.4647 40.5472L39.7324 9.96993Z" fill="white" fill-opacity="0.602"/>
    <path d="M39.7322 9.96993L21 40.5472L39.7322 32.1642V9.96993Z" fill="white"/>
    <path d="M39.7324 54.9275V70.0082L58.4756 44.0383L39.7324 54.9275Z" fill="white" fill-opacity="0.602"/>
    <path d="M39.7322 70.0082V54.9275L21 44.0383L39.7322 70.0082Z" fill="white"/>
    <path d="M39.7324 51.4364L58.4647 40.5472L39.7324 32.1641V51.4364Z" fill="white" fill-opacity="0.2"/>
    <path d="M21 40.5472L39.7322 51.4364V32.1641L21 40.5472Z" fill="white" fill-opacity="0.602"/>
</svg>