<svg id="etherscan-logo" viewBox="0 0 24 24" fill="none" xmlns="http://www.w3.org/2000/svg">
    <path fill-rule="evenodd" clip-rule="evenodd"
          d="M6.22139 11.1971C6.17855 11.3002 6.15651 11.4108 6.15653 11.5225H6.15687V16.8227C6.1567 16.9962 6.09271 17.1637 5.9771 17.2931C5.86149 17.4225 5.70233 17.5049 5.52994 17.5245C5.13385 17.5711 4.80067 17.6044 4.53306 17.6279C4.29353 17.6493 4.05286 17.6019 3.83932 17.4913C3.62579 17.3806 3.44826 17.2113 3.32758 17.0032C2.45255 15.4818 1.9946 13.7562 2.00005 12.0009C1.9995 6.45391 6.58155 1.9264 12.1258 2.00091C14.1819 2.02925 16.179 2.6922 17.8441 3.89911C19.5092 5.10603 20.761 6.79798 21.4284 8.74364C21.5048 8.9661 21.525 9.20402 21.4872 9.43619C21.4493 9.66835 21.3547 9.88754 21.2116 10.0742C20.2252 11.3601 18.9823 12.4295 17.7559 13.3186V7.28287C17.7559 7.05768 17.6665 6.84172 17.5073 6.6825C17.3481 6.52327 17.1322 6.43382 16.9071 6.43382H15.4925C15.3811 6.43383 15.2707 6.45579 15.1678 6.49847C15.0648 6.54114 14.9712 6.60368 14.8924 6.68253C14.8136 6.76137 14.7511 6.85497 14.7085 6.95797C14.6659 7.06098 14.6439 7.17138 14.6439 7.28287V14.6127C14.6438 14.7519 14.6027 14.888 14.5258 15.004C14.4489 15.12 14.3396 15.2107 14.2114 15.265C13.8663 15.4106 13.5123 15.5541 13.5123 15.5541V9.40589C13.5123 9.18069 13.4229 8.9647 13.2637 8.80544C13.1046 8.64618 12.8887 8.55668 12.6636 8.55663H11.249C11.0238 8.55666 10.808 8.64616 10.6488 8.80542C10.4896 8.96469 10.4002 9.18068 10.4002 9.40589V16.0301C10.4002 16.1896 10.3463 16.3443 10.2473 16.4693C10.1484 16.5943 10.0101 16.6821 9.85498 16.7187C9.63155 16.7711 9.42758 16.8214 9.26855 16.8685V11.5282C9.26855 11.303 9.17913 11.087 9.01996 10.9278C8.86079 10.7686 8.64491 10.6791 8.41981 10.6791L7.00806 10.6745C6.89641 10.6739 6.78576 10.6955 6.68246 10.7379C6.57916 10.7803 6.48526 10.8427 6.40613 10.9215C6.327 11.0003 6.26422 11.0939 6.22139 11.1971ZM6.12627 20.0871C6.1262 20.087 6.12612 20.087 6.12605 20.0869L6.12598 20.0871C6.12607 20.0871 6.12617 20.0871 6.12627 20.0871ZM6.12627 20.0871C7.61728 21.1721 9.37925 21.8234 11.2173 21.9689C13.0554 22.1144 14.8979 21.7483 16.541 20.9113C18.1841 20.0743 19.5637 18.7988 20.5271 17.2261C21.4906 15.6534 22.0004 13.8447 22.0001 12.0002C22.0001 11.7699 21.9894 11.5422 21.974 11.3158C18.3222 16.764 11.5796 19.3115 6.12627 20.0871Z"
          fill="#B7B7B7"/>
</svg>