
<svg width="547" height="546" viewBox="0 0 547 546" fill="none" xmlns="http://www.w3.org/2000/svg">
    <g clip-path="url(#clip0_4100_9556)">
        <rect x="61" y="23" width="72.4549" height="72.6442" rx="36.2274" fill="#98C5FA"/>
        <path d="M96.3545 36.3074C96.7697 35.6876 97.6811 35.6876 98.0963 36.3074L113.06 58.642C113.297 58.995 113.297 59.4559 113.06 59.809L98.0963 82.1436C97.6811 82.7633 96.7697 82.7633 96.3545 82.1436L81.3903 59.809C81.1538 59.456 81.1538 58.995 81.3903 58.642L96.3545 36.3074ZM105.725 66.5455C106.324 65.6523 105.35 64.5445 104.387 65.0234L97.6924 68.3542C97.3983 68.5005 97.0526 68.5005 96.7584 68.3542L90.0635 65.0234C89.1008 64.5445 88.1271 65.6523 88.7256 66.5455L96.3545 77.9319C96.7697 78.5516 97.6811 78.5516 98.0963 77.9319L105.725 66.5455ZM98.1601 43.6233C98.1601 43.145 97.7723 42.7573 97.294 42.7573V42.7573C96.8157 42.7573 96.428 43.145 96.428 43.6233V43.9394C96.428 44.4903 95.9998 44.9395 95.4566 45.031C94.37 45.2141 93.451 45.5762 92.6751 46.1297C91.3367 47.0518 90.6806 48.3692 90.6806 50.1081C90.6806 52.0335 91.5508 53.4964 93.3417 54.4967C93.3867 54.5219 93.4342 54.5433 93.4827 54.5611L95.7405 55.3889C96.1534 55.5403 96.428 55.9334 96.428 56.3732V60.6133C96.428 61.2457 95.8568 61.7582 95.279 61.5009C94.9925 61.3733 94.7456 61.2116 94.5384 61.0158C94.0866 60.5819 93.7818 59.9117 93.613 59.0275C93.5103 58.4893 93.0655 58.0649 92.5176 58.0649H91.5719C90.9629 58.0649 90.4757 58.5839 90.5764 59.1845C90.8455 60.7894 91.4313 62.0234 92.3339 62.8864C93.1002 63.6129 94.1426 64.0795 95.4612 64.3001C96.0027 64.3908 96.428 64.8393 96.428 65.3883V65.867C96.428 66.3453 96.8157 66.7331 97.294 66.7331V66.7331C97.7723 66.7331 98.1601 66.3453 98.1601 65.867V65.3961C98.1601 64.8439 98.59 64.393 99.1358 64.309C100.303 64.1293 101.295 63.7693 102.123 63.2289C103.54 62.2804 104.249 60.884 104.249 59.0134C104.249 57.09 103.33 55.6146 101.519 54.5871C101.38 54.494 100.483 54.1541 98.8463 53.5493C98.4344 53.3971 98.1601 53.0043 98.1601 52.5652V48.6819C98.1601 48.0532 98.7272 47.5377 99.299 47.7991C99.4587 47.8721 99.6039 47.9567 99.7347 48.053C100.18 48.3694 100.507 48.8437 100.716 49.485C100.878 49.9812 101.303 50.3716 101.825 50.3716H102.706C103.342 50.3716 103.838 49.8081 103.68 49.1927C103.34 47.8675 102.755 46.8686 101.913 46.2087C101.192 45.6299 100.261 45.2295 99.1334 45.033C98.5898 44.9382 98.1601 44.489 98.1601 43.9372V43.6233ZM98.1601 56.5813C98.1601 56.4249 98.3089 56.3085 98.4487 56.3787V56.3787C100.26 57.011 101.178 57.9331 101.178 59.1188C101.178 59.9882 100.811 60.6732 100.076 61.1475C99.8507 61.2944 99.6015 61.4171 99.3322 61.5176C98.7343 61.7408 98.1601 61.2349 98.1601 60.5967V56.5813ZM95.287 47.7473C95.8683 47.5131 96.428 48.0234 96.428 48.6502V51.1121C96.428 51.8475 95.6797 52.3645 95.0564 51.9742C94.1862 51.4293 93.7511 50.8072 93.7511 50.1081C93.7511 49.1332 94.0923 48.4219 94.8008 48.0003C94.9428 47.9053 95.1053 47.8206 95.287 47.7473Z" fill="white"/>
    </g>
    <rect x="61.7547" y="23.7547" width="70.9455" height="71.1348" rx="35.4727" stroke="black" stroke-width="1.50939"/>
    <g clip-path="url(#clip1_4100_9556)">
        <rect x="501.455" y="239.49" width="45.5451" height="45.6642" rx="22.7726" fill="#98C5FA"/>
        <path d="M523.679 247.855C523.94 247.466 524.513 247.465 524.774 247.855L534.18 261.895C534.329 262.117 534.329 262.406 534.18 262.628L524.774 276.668C524.513 277.057 523.94 277.057 523.679 276.668L514.272 262.628C514.124 262.406 514.124 262.117 514.272 261.895L523.679 247.855ZM529.569 266.863C529.945 266.301 529.333 265.605 528.728 265.906L524.52 268C524.335 268.092 524.118 268.092 523.933 268L519.724 265.906C519.119 265.605 518.507 266.301 518.883 266.863L523.679 274.02C523.94 274.41 524.513 274.41 524.774 274.02L529.569 266.863ZM524.814 252.454C524.814 252.153 524.57 251.909 524.269 251.909V251.909C523.969 251.909 523.725 252.153 523.725 252.454V252.653C523.725 252.999 523.456 253.281 523.114 253.339C522.431 253.454 521.854 253.681 521.366 254.029C520.525 254.609 520.112 255.437 520.112 256.53C520.112 257.74 520.659 258.66 521.785 259.289C521.813 259.305 521.843 259.318 521.874 259.329L523.293 259.85C523.552 259.945 523.725 260.192 523.725 260.468V263.134C523.725 263.531 523.366 263.853 523.003 263.692C522.823 263.611 522.667 263.51 522.537 263.387C522.253 263.114 522.062 262.693 521.955 262.137C521.891 261.799 521.611 261.532 521.267 261.532H520.672C520.29 261.532 519.983 261.858 520.047 262.236C520.216 263.244 520.584 264.02 521.151 264.563C521.633 265.019 522.288 265.313 523.117 265.451C523.458 265.508 523.725 265.79 523.725 266.135V266.436C523.725 266.737 523.969 266.981 524.269 266.981V266.981C524.57 266.981 524.814 266.737 524.814 266.436V266.14C524.814 265.793 525.084 265.51 525.427 265.457C526.161 265.344 526.784 265.118 527.305 264.778C528.196 264.182 528.641 263.304 528.641 262.128C528.641 260.919 528.064 259.992 526.925 259.346C526.838 259.287 526.274 259.074 525.245 258.693C524.986 258.598 524.814 258.351 524.814 258.075V255.634C524.814 255.239 525.17 254.914 525.53 255.079C525.63 255.125 525.721 255.178 525.804 255.238C526.083 255.437 526.289 255.735 526.42 256.139C526.522 256.45 526.79 256.696 527.118 256.696H527.672C528.071 256.696 528.383 256.342 528.284 255.955C528.07 255.122 527.702 254.494 527.173 254.079C526.72 253.715 526.135 253.464 525.426 253.34C525.084 253.28 524.814 252.998 524.814 252.651V252.454ZM524.814 260.599C524.814 260.501 524.907 260.428 524.995 260.472V260.472C526.133 260.869 526.711 261.449 526.711 262.194C526.711 262.741 526.48 263.171 526.018 263.47C525.876 263.562 525.72 263.639 525.551 263.702C525.175 263.843 524.814 263.525 524.814 263.123V260.599ZM523.008 255.046C523.373 254.899 523.725 255.22 523.725 255.614V257.161C523.725 257.624 523.255 257.949 522.863 257.703C522.316 257.361 522.042 256.97 522.042 256.53C522.042 255.917 522.257 255.47 522.702 255.205C522.791 255.146 522.893 255.092 523.008 255.046Z" fill="white"/>
    </g>
    <rect x="501.929" y="239.964" width="44.5963" height="44.7154" rx="22.2982" stroke="black" stroke-width="0.948805"/>
    <rect x="150.793" y="469.793" width="74.5507" height="74.7497" rx="37.2754" fill="#98C5FA"/>
    <path d="M187.151 482.984C187.588 482.332 188.545 482.332 188.982 482.984L204.706 506.453C204.955 506.824 204.955 507.309 204.706 507.68L188.982 531.149C188.545 531.8 187.588 531.8 187.151 531.149L171.427 507.68C171.178 507.309 171.178 506.824 171.427 506.453L187.151 482.984ZM196.998 514.758C197.627 513.82 196.604 512.656 195.592 513.159L188.557 516.659C188.248 516.813 187.885 516.813 187.576 516.659L180.541 513.159C179.529 512.656 178.506 513.82 179.135 514.758L187.151 526.723C187.588 527.375 188.545 527.375 188.982 526.723L196.998 514.758ZM189.049 490.671C189.049 490.169 188.641 489.761 188.138 489.761V489.761C187.636 489.761 187.228 490.169 187.228 490.671V491.004C187.228 491.582 186.779 492.054 186.208 492.151C185.066 492.343 184.1 492.723 183.285 493.305C181.878 494.274 181.189 495.658 181.189 497.486C181.189 499.509 182.103 501.046 183.985 502.097C184.033 502.124 184.083 502.146 184.133 502.165L186.506 503.035C186.94 503.194 187.228 503.607 187.228 504.069V508.525C187.228 509.189 186.628 509.728 186.021 509.457C185.72 509.323 185.461 509.153 185.243 508.948C184.768 508.492 184.448 507.788 184.27 506.858C184.163 506.293 183.695 505.847 183.119 505.847H182.126C181.486 505.847 180.974 506.392 181.08 507.023C181.362 508.71 181.978 510.006 182.926 510.913C183.732 511.677 184.827 512.167 186.213 512.399C186.782 512.494 187.228 512.965 187.228 513.542V514.045C187.228 514.548 187.636 514.955 188.138 514.955V514.955C188.641 514.955 189.049 514.548 189.049 514.045V513.551C189.049 512.97 189.5 512.496 190.074 512.408C191.301 512.219 192.343 511.841 193.213 511.273C194.702 510.277 195.447 508.809 195.447 506.843C195.447 504.822 194.481 503.272 192.578 502.192C192.432 502.094 191.49 501.737 189.77 501.102C189.337 500.942 189.049 500.529 189.049 500.068V495.987C189.049 495.326 189.644 494.785 190.245 495.059C190.413 495.136 190.566 495.225 190.703 495.326C191.171 495.659 191.514 496.157 191.734 496.831C191.904 497.352 192.352 497.763 192.9 497.763H193.826C194.493 497.763 195.015 497.17 194.849 496.524C194.492 495.131 193.877 494.082 192.992 493.388C192.235 492.78 191.257 492.359 190.071 492.153C189.5 492.053 189.049 491.581 189.049 491.001V490.671ZM189.049 504.288C189.049 504.123 189.205 504.001 189.352 504.075V504.075C191.255 504.739 192.22 505.708 192.22 506.954C192.22 507.868 191.834 508.588 191.062 509.086C190.825 509.24 190.563 509.369 190.28 509.475C189.652 509.709 189.049 509.178 189.049 508.507V504.288ZM186.029 495.005C186.64 494.759 187.228 495.295 187.228 495.954V498.541C187.228 499.313 186.442 499.857 185.787 499.447C184.873 498.874 184.416 498.22 184.416 497.486C184.416 496.461 184.774 495.714 185.519 495.271C185.668 495.171 185.839 495.082 186.029 495.005Z" fill="white"/>
    <rect x="150.793" y="469.793" width="74.5507" height="74.7497" rx="37.2754" stroke="black" stroke-width="1.5861"/>
    <defs>
        <clipPath id="clip0_4100_9556">
            <rect x="61" y="23" width="72.4549" height="72.6442" rx="36.2274" fill="white"/>
        </clipPath>
        <clipPath id="clip1_4100_9556">
            <rect x="501.455" y="239.49" width="45.5451" height="45.6642" rx="22.7726" fill="white"/>
        </clipPath>
    </defs>
</svg>