<svg width="81" height="80" viewBox="0 0 81 80" fill="none" xmlns="http://www.w3.org/2000/svg">
    <g clip-path="url(#clip0_4222_9660)">
        <rect x="0.681641" width="80" height="80" rx="40" fill="#98C5FA"/>
        <path d="M39.7177 14.6932C40.1762 14.0089 41.1825 14.0089 41.6409 14.6932L58.1634 39.3536C58.4246 39.7434 58.4246 40.2524 58.1634 40.6422L41.6409 65.3026C41.1825 65.9869 40.1762 65.9869 39.7177 65.3026L23.1952 40.6422C22.934 40.2523 22.934 39.7434 23.1952 39.3536L39.7177 14.6932ZM50.0642 48.0802C50.725 47.0939 49.6499 45.8708 48.587 46.3996L41.1949 50.0772C40.8702 50.2388 40.4885 50.2388 40.1637 50.0772L32.7716 46.3996C31.7087 45.8708 30.6336 47.0939 31.2944 48.0802L39.7177 60.6523C40.1762 61.3366 41.1824 61.3366 41.6409 60.6523L50.0642 48.0802ZM41.7113 22.7709C41.7113 22.2428 41.2832 21.8147 40.755 21.8147C40.2269 21.8147 39.7988 22.2428 39.7988 22.7709V23.12C39.7988 23.7282 39.3261 24.2242 38.7263 24.3252C37.5265 24.5274 36.5119 24.9272 35.6551 25.5383C34.1773 26.5565 33.4529 28.011 33.4529 29.931C33.4529 32.0569 34.4137 33.6721 36.3912 34.7767C36.4409 34.8045 36.4933 34.8281 36.5468 34.8477L39.0398 35.7618C39.4957 35.9289 39.7988 36.3629 39.7988 36.8485V41.5302C39.7988 42.2285 39.1682 42.7943 38.5302 42.5102C38.2139 42.3693 37.9413 42.1908 37.7125 41.9746C37.2136 41.4955 36.8771 40.7556 36.6908 39.7793C36.5774 39.185 36.0862 38.7164 35.4812 38.7164H34.4371C33.7647 38.7164 33.2268 39.2894 33.3379 39.9526C33.635 41.7247 34.2819 43.0872 35.2784 44.04C36.1245 44.8422 37.2754 45.3573 38.7314 45.601C39.3293 45.7011 39.7988 46.1963 39.7988 46.8025V47.331C39.7988 47.8592 40.2269 48.2873 40.755 48.2873C41.2832 48.2873 41.7113 47.8592 41.7113 47.331V46.8111C41.7113 46.2014 42.186 45.7035 42.7886 45.6108C44.0778 45.4124 45.1724 45.0149 46.0868 44.4182C47.6515 43.3709 48.4339 41.8291 48.4339 39.7637C48.4339 37.6401 47.4197 36.011 45.4203 34.8764C45.2667 34.7736 44.2763 34.3984 42.469 33.7306C42.0142 33.5625 41.7113 33.1289 41.7113 32.644V28.3564C41.7113 27.6622 42.3375 27.093 42.9688 27.3816C43.1452 27.4622 43.3055 27.5557 43.4499 27.6619C43.9412 28.0113 44.3023 28.5349 44.5333 29.243C44.712 29.7909 45.182 30.2219 45.7583 30.2219H46.731C47.4325 30.2219 47.9809 29.5998 47.8064 28.9203C47.4307 27.4571 46.7849 26.3542 45.855 25.6256C45.0592 24.9865 44.0316 24.5444 42.786 24.3274C42.1858 24.2228 41.7113 23.7268 41.7113 23.1175V22.7709ZM41.7113 37.0784C41.7113 36.9057 41.8757 36.7771 42.03 36.8546C44.0294 37.5528 45.0436 38.571 45.0436 39.8801C45.0436 40.84 44.6379 41.5964 43.8266 42.12C43.578 42.2822 43.3028 42.4177 43.0055 42.5287C42.3453 42.7751 41.7113 42.2166 41.7113 41.5119V37.0784ZM38.539 27.3244C39.1809 27.0658 39.7988 27.6292 39.7988 28.3213V31.0395C39.7988 31.8515 38.9726 32.4225 38.2844 31.9915C37.3236 31.3898 36.8432 30.703 36.8432 29.931C36.8432 28.8547 37.2199 28.0692 38.0023 27.6038C38.159 27.4988 38.3384 27.4053 38.539 27.3244Z" fill="white"/>
    </g>
    <defs>
        <clipPath id="clip0_4222_9660">
            <rect x="0.681641" width="80" height="80" rx="40" fill="white"/>
        </clipPath>
    </defs>
</svg>