<svg width="64" height="64" viewBox="0 0 64 64" fill="none" xmlns="http://www.w3.org/2000/svg">
    <rect width="64" height="64" rx="18.2857" fill="#CEF2CB"/>
    <circle cx="32" cy="35" r="10" fill="black"/>
    <path d="M45.4 23.3667L35.8 16.65C33.1833 14.8167 29.1666 14.9167 26.65 16.8667L18.3 23.3833C16.6333 24.6833 15.3167 27.35 15.3167 29.45V40.95C15.3167 45.2 18.7666 48.6667 23.0166 48.6667H40.9833C45.2333 48.6667 48.6833 45.2167 48.6833 40.9667V29.6667C48.6833 27.4167 47.2333 24.65 45.4 23.3667ZM40.1333 34.3333C40.1333 34.9833 39.6166 35.5 38.9666 35.5C38.3166 35.5 37.8 34.9833 37.8 34.3333V34.0333L33.2666 38.5667C33.0166 38.8167 32.6833 38.9333 32.3333 38.9C32 38.8667 31.6833 38.6667 31.5 38.3833L29.8 35.85L25.8333 39.8167C25.6 40.05 25.3166 40.15 25.0166 40.15C24.7166 40.15 24.4166 40.0333 24.2 39.8167C23.75 39.3667 23.75 38.6333 24.2 38.1667L29.1666 33.2C29.4166 32.95 29.75 32.8333 30.1 32.8667C30.45 32.9 30.7666 33.0833 30.95 33.3833L32.65 35.9167L36.1666 32.4H35.8666C35.2166 32.4 34.7 31.8833 34.7 31.2333C34.7 30.5833 35.2166 30.0667 35.8666 30.0667H38.9666C39.1166 30.0667 39.2666 30.1 39.4166 30.15C39.7 30.2667 39.9333 30.5 40.05 30.7833C40.1166 30.9333 40.1333 31.0833 40.1333 31.2333V34.3333Z" fill="white"/>
</svg>