<svg width="64" height="64" viewBox="0 0 64 64" fill="none" xmlns="http://www.w3.org/2000/svg">
    <rect width="64" height="64" rx="18.2857" fill="#98C5FA"/>
    <path d="M45 33.3V40.7001C45 46.9401 39.18 52 32 52C24.82 52 19 46.9401 19 40.7001V33.3C19 39.54 24.82 44 32 44C39.18 44 45 39.54 45 33.3Z" fill="white"/>
    <path d="M45 23.3V33.3C45 39.54 39.18 44 32 44C24.82 44 19 39.54 19 33.3V23.3C19 25.12 19.5 26.8 20.38 28.24C22.52 31.76 26.92 34 32 34C37.08 34 41.48 31.76 43.62 28.24C44.5 26.8 45 25.12 45 23.3Z" fill="black"/>
    <path d="M45 23.3C45 25.12 44.5 26.8 43.62 28.24C41.48 31.76 37.08 34 32 34C26.92 34 22.52 31.76 20.38 28.24C19.5 26.8 19 25.12 19 23.3C19 17.06 24.82 12 32 12C35.6 12 38.84 13.26 41.2 15.3C43.54 17.36 45 20.18 45 23.3Z" fill="white"/>
</svg>