<svg width="64" height="64" viewBox="0 0 64 64" fill="none" xmlns="http://www.w3.org/2000/svg">
    <rect width="64" height="64" rx="18.2857" fill="#BCA9E2"/>
    <path d="M15.9493 37.3345L12.9048 34.29C11.6629 33.0482 11.6629 31.0051 12.9048 29.7632L15.9493 26.7186C16.4701 26.1979 16.8907 25.1763 16.8907 24.4552V20.1488C16.8907 18.3862 18.3329 16.944 20.0955 16.944H24.402C25.1231 16.944 26.1446 16.5234 26.6654 16.0026L29.7099 12.958C30.9518 11.7161 32.9949 11.7161 34.2367 12.958L37.2813 16.0026C37.8021 16.5234 38.8236 16.944 39.5447 16.944H43.8512C45.6138 16.944 47.0559 18.3862 47.0559 20.1488V24.4552C47.0559 25.1763 47.4766 26.1979 47.9974 26.7186L51.042 29.7632C52.2838 31.0051 52.2838 33.0482 51.042 34.29L47.9974 37.3345C47.4766 37.8553 47.0559 38.8768 47.0559 39.5979V43.9044C47.0559 45.6671 45.6138 47.1092 43.8512 47.1092H39.5447C38.8236 47.1092 37.8021 47.5299 37.2813 48.0507L34.2367 51.0953C32.9949 52.3371 30.9518 52.3371 29.7099 51.0953L26.6654 48.0507C26.1446 47.5299 25.1231 47.1092 24.402 47.1092H20.0955C18.3329 47.1092 16.8907 45.6671 16.8907 43.9044V39.5979C16.8907 38.8568 16.4701 37.8353 15.9493 37.3345Z" fill="white"/>
    <path d="M38.0024 40.0186C36.8807 40.0186 35.9793 39.1173 35.9793 38.0156C35.9793 36.914 36.8807 36.0126 37.9823 36.0126C39.084 36.0126 39.9853 36.914 39.9853 38.0156C39.9853 39.1173 39.104 40.0186 38.0024 40.0186Z" fill="black"/>
    <path d="M26.0044 28.0006C24.8827 28.0006 23.9814 27.0993 23.9814 25.9976C23.9814 24.896 24.8827 23.9946 25.9844 23.9946C27.086 23.9946 27.9874 24.896 27.9874 25.9976C27.9874 27.0993 27.1061 28.0006 26.0044 28.0006Z" fill="black"/>
    <path d="M25.9844 39.5179C25.6038 39.5179 25.2232 39.3777 24.9228 39.0772C24.3419 38.4964 24.3419 37.5348 24.9228 36.9539L36.9408 24.9359C37.5217 24.3551 38.4831 24.3551 39.064 24.9359C39.6448 25.5168 39.6448 26.4784 39.064 27.0592L27.046 39.0772C26.7455 39.3777 26.3649 39.5179 25.9844 39.5179Z" fill="black"/>
</svg>