<svg width="64" height="64" viewBox="0 0 64 64" fill="none" xmlns="http://www.w3.org/2000/svg">
    <rect width="64" height="64" rx="18.2857" fill="#F7CFA5"/>
    <path d="M29.9201 12.12L18.9201 16.24C16.8201 17.04 15.1001 19.52 15.1001 21.78V37.98C15.1001 39.6 16.1601 41.74 17.4601 42.7L28.4601 50.92C30.4001 52.38 33.5801 52.38 35.5201 50.92L46.5201 42.7C47.8201 41.72 48.8801 39.6 48.8801 37.98V21.78C48.8801 19.54 47.1601 17.04 45.0601 16.26L34.0601 12.14C32.9401 11.7 31.0601 11.7 29.9201 12.12Z" fill="white"/>
    <path d="M29.32 36.46C28.94 36.46 28.56 36.32 28.26 36.02L25.04 32.8C24.46 32.22 24.46 31.26 25.04 30.68C25.62 30.1 26.58 30.1 27.16 30.68L29.32 32.84L36.86 25.3C37.44 24.72 38.4 24.72 38.98 25.3C39.56 25.88 39.56 26.84 38.98 27.42L30.38 36.02C30.08 36.32 29.7 36.46 29.32 36.46Z" fill="black"/>
    <path d="M44.1481 47.1111C47.2573 47.1111 49.7778 44.5906 49.7778 41.4815C49.7778 38.3723 47.2573 35.8518 44.1481 35.8518C41.039 35.8518 38.5185 38.3723 38.5185 41.4815C38.5185 44.5906 41.039 47.1111 44.1481 47.1111Z" stroke="black" stroke-width="1.77778" stroke-linecap="round" stroke-linejoin="round"/>
    <path d="M50.3704 47.7037L49.1852 46.5185" stroke="black" stroke-width="1.77778" stroke-linecap="round" stroke-linejoin="round"/>
</svg>