<svg width="24" height="25" viewBox="0 0 24 25" fill="none" xmlns="http://www.w3.org/2000/svg">
    <g clip-path="url(#clip0_2065_9333)">
        <path fill-rule="evenodd" clip-rule="evenodd" d="M12 0.179077C5.3724 0.179077 0 5.55988 0 12.1995C0 17.5095 3.438 22.0155 8.2068 23.6043C8.8068 23.7147 9.0252 23.3439 9.0252 23.0247C9.0252 22.7403 9.0156 21.9831 9.0096 20.9811C5.6712 21.7071 4.9668 19.3695 4.9668 19.3695C4.422 17.9799 3.6348 17.6103 3.6348 17.6103C2.5452 16.8663 3.7176 16.8807 3.7176 16.8807C4.9212 16.9647 5.5548 18.1191 5.5548 18.1191C6.6252 19.9551 8.364 19.4247 9.0468 19.1175C9.1572 18.3411 9.4668 17.8119 9.81 17.5119C7.146 17.2083 4.344 16.1763 4.344 11.5707C4.344 10.2591 4.812 9.18508 5.5788 8.34508C5.4552 8.04148 5.0436 6.81868 5.6964 5.16508C5.6964 5.16508 6.7044 4.84108 8.9964 6.39628C9.97532 6.12929 10.9853 5.99331 12 5.99188C13.02 5.99668 14.046 6.12988 15.0048 6.39628C17.2956 4.84108 18.3012 5.16388 18.3012 5.16388C18.9564 6.81868 18.5436 8.04148 18.4212 8.34508C19.1892 9.18508 19.6548 10.2591 19.6548 11.5707C19.6548 16.1883 16.848 17.2047 14.1756 17.5023C14.6064 17.8731 14.9892 18.6063 14.9892 19.7283C14.9892 21.3339 14.9748 22.6311 14.9748 23.0247C14.9748 23.3463 15.1908 23.7207 15.8004 23.6031C18.19 22.8016 20.2672 21.2694 21.7386 19.2231C23.2099 17.1768 24.001 14.7199 24 12.1995C24 5.55988 18.6264 0.179077 12 0.179077Z" fill="white"/>
    </g>
    <defs>
        <clipPath id="clip0_2065_9333">
            <rect width="24" height="24" fill="white" transform="translate(0 0.179077)"/>
        </clipPath>
    </defs>
</svg>