<svg width="20" height="18" viewBox="0 0 20 18" fill="none" xmlns="http://www.w3.org/2000/svg">
    <g clip-path="url(#clip0_2043_8179)">
        <circle cx="10.0001" cy="8.99999" r="8.24992" stroke="black" stroke-width="1.5"/>
        <path d="M15.2619 0.744626C16.2591 0.73439 17.2562 0.73439 18.2534 0.73439V3.73607C17.4746 2.54214 16.4559 1.52338 15.2619 0.744626ZM18.2534 14.2645V17.2843H15.2619C16.4596 16.4984 17.4788 15.4696 18.2534 14.2645ZM4.7389 0.747637C3.53818 1.51877 2.51353 2.53439 1.7318 3.72824V0.753056C1.79562 0.731981 4.52935 0.725358 4.7389 0.747637ZM4.72565 17.2668H1.75046C1.72939 17.197 1.72397 14.388 1.74504 14.2645C2.51797 15.4625 3.53332 16.4852 4.72565 17.2668Z" fill="black"/>
    </g>
    <defs>
        <clipPath id="clip0_2043_8179">
            <rect width="20" height="17.9998" fill="white"/>
        </clipPath>
    </defs>
</svg>