<svg width="33" height="33" viewBox="0 0 33 33" fill="none" xmlns="http://www.w3.org/2000/svg">
    <g clip-path="url(#clip0_4295_10201)">
        <path d="M10 21C15.5417 21 20 16.5417 20 11C20 5.4583 15.5417 1 10 1C4.4583 1 0 5.4583 0 11C0 16.5417 4.4583 21 10 21Z" fill="#2775CA"/>
        <path d="M12.75 12.5833C12.75 11.125 11.875 10.625 10.125 10.4167C8.875 10.25 8.625 9.91671 8.625 9.33331C8.625 8.74991 9.0417 8.37501 9.875 8.37501C10.625 8.37501 11.0417 8.62501 11.25 9.25001C11.2917 9.37501 11.4167 9.45831 11.5417 9.45831H12.2083C12.375 9.45831 12.5 9.33331 12.5 9.16671V9.12501C12.3333 8.20831 11.5833 7.50001 10.625 7.41671V6.41671C10.625 6.25001 10.5 6.12501 10.2917 6.08331H9.6667C9.5 6.08331 9.375 6.20831 9.3333 6.41671V7.37501C8.0833 7.54171 7.2917 8.37501 7.2917 9.41671C7.2917 10.7917 8.125 11.3333 9.875 11.5417C11.0417 11.75 11.4167 12 11.4167 12.6667C11.4167 13.3334 10.8333 13.7917 10.0417 13.7917C8.9583 13.7917 8.5833 13.3333 8.4583 12.7083C8.4167 12.5417 8.2917 12.4583 8.1667 12.4583H7.4583C7.2917 12.4583 7.1667 12.5833 7.1667 12.75V12.7917C7.3333 13.8333 8 14.5833 9.375 14.7917V15.7917C9.375 15.9583 9.5 16.0833 9.7083 16.125H10.3333C10.5 16.125 10.625 16 10.6667 15.7917V14.7917C11.9167 14.5833 12.75 13.7083 12.75 12.5833Z" fill="white"/>
        <path d="M7.875 16.9583C4.625 15.7917 2.9583 12.1667 4.1667 8.95829C4.7917 7.20829 6.1667 5.87499 7.875 5.24999C8.0417 5.16669 8.125 5.04169 8.125 4.83329V4.24999C8.125 4.08329 8.0417 3.95829 7.875 3.91669C7.8333 3.91669 7.75 3.91669 7.7083 3.95829C3.75 5.20829 1.5833 9.41669 2.8333 13.375C3.5833 15.7083 5.375 17.5 7.7083 18.25C7.875 18.3333 8.0417 18.25 8.0833 18.0833C8.125 18.0417 8.125 18 8.125 17.9167V17.3333C8.125 17.2083 8 17.0417 7.875 16.9583ZM12.2917 3.95829C12.125 3.87499 11.9583 3.95829 11.9167 4.12499C11.875 4.16669 11.875 4.20829 11.875 4.29169V4.87499C11.875 5.04169 12 5.20829 12.125 5.29169C15.375 6.45829 17.0417 10.0833 15.8333 13.2917C15.2083 15.0417 13.8333 16.375 12.125 17C11.9583 17.0833 11.875 17.2083 11.875 17.4167V18C11.875 18.1667 11.9583 18.2917 12.125 18.3333C12.1667 18.3333 12.25 18.3333 12.2917 18.2917C16.25 17.0417 18.4167 12.8333 17.1667 8.87499C16.4167 6.49999 14.5833 4.70829 12.2917 3.95829Z" fill="white"/>
    </g>
    <rect x="9" y="9" width="24" height="24" rx="12" fill="#6ED69B"/>
    <path d="M20.6677 11.896C20.8261 11.6595 21.1739 11.6595 21.3323 11.896L27.2828 20.7773C27.3731 20.9121 27.3731 21.0879 27.2828 21.2226L21.3323 30.104C21.1739 30.3405 20.8261 30.3405 20.6677 30.104L14.7172 21.2226C14.6269 21.0879 14.6269 20.9121 14.7172 20.7773L20.6677 11.896ZM24.402 23.8529C24.6303 23.5121 24.2588 23.0894 23.8915 23.2722L21.1782 24.6221C21.066 24.6779 20.9341 24.6779 20.8218 24.6221L18.1085 23.2722C17.7412 23.0894 17.3697 23.5121 17.5981 23.8529L20.6677 28.4345C20.8261 28.671 21.1739 28.671 21.3323 28.4345L24.402 23.8529ZM21.3705 14.8153C21.3705 14.6257 21.2168 14.472 21.0272 14.472C20.8376 14.472 20.6839 14.6257 20.6839 14.8153V14.9551C20.6839 15.1653 20.5206 15.3368 20.3132 15.3709C19.8762 15.4427 19.5073 15.587 19.1963 15.8088C18.6657 16.1744 18.4056 16.6966 18.4056 17.3859C18.4056 18.1494 18.7509 18.7295 19.4615 19.1261C19.4787 19.1357 19.4968 19.1438 19.5153 19.1506L20.4216 19.4829C20.5792 19.5407 20.6839 19.6907 20.6839 19.8585V21.5678C20.6839 21.8091 20.4665 22.0041 20.2447 21.909C20.1242 21.8574 20.0209 21.7909 19.9349 21.7097C19.7534 21.5354 19.6317 21.2649 19.5654 20.9074C19.5273 20.7019 19.3573 20.5399 19.1482 20.5399H18.7422C18.5099 20.5399 18.3241 20.738 18.3616 20.9673C18.467 21.6115 18.7002 22.1061 19.061 22.4512C19.3675 22.7418 19.7855 22.9274 20.3149 23.0139C20.5216 23.0477 20.6839 23.219 20.6839 23.4285V23.6327C20.6839 23.8223 20.8376 23.976 21.0272 23.976C21.2168 23.976 21.3705 23.8223 21.3705 23.6327V23.4315C21.3705 23.2207 21.5345 23.0486 21.7429 23.0173C22.212 22.9468 22.6097 22.8034 22.9414 22.5869C23.5031 22.211 23.784 21.6574 23.784 20.9159C23.784 20.1535 23.4199 19.5686 22.7021 19.1613C22.6467 19.1242 22.2877 18.9883 21.6324 18.7462C21.4752 18.6881 21.3705 18.5383 21.3705 18.3707V16.803C21.3705 16.5631 21.5863 16.3671 21.806 16.4634C21.8756 16.4939 21.9385 16.5299 21.9947 16.5712C22.1741 16.6988 22.3051 16.891 22.3878 17.1518C22.448 17.3416 22.6108 17.4903 22.8099 17.4903H23.1905C23.4329 17.4903 23.6222 17.2753 23.5631 17.0402C23.4289 16.5063 23.1956 16.1046 22.8581 15.8402C22.5694 15.6083 22.1957 15.4486 21.742 15.3716C21.5345 15.3364 21.3705 15.1648 21.3705 14.9543V14.8153ZM21.3705 19.9518C21.3705 19.8898 21.4295 19.8437 21.4849 19.8715C22.2028 20.1222 22.5669 20.4877 22.5669 20.9577C22.5669 21.3023 22.4212 21.5739 22.1299 21.7619C22.036 21.8232 21.9315 21.8738 21.8183 21.9148C21.5893 21.9976 21.3705 21.805 21.3705 21.5615V19.9518ZM20.2479 16.4436C20.4709 16.3573 20.6839 16.5513 20.6839 16.7905V17.8065C20.6839 18.0871 20.3989 18.2839 20.1595 18.1375C19.8017 17.9187 19.6228 17.6681 19.6228 17.3859C19.6228 16.9994 19.758 16.7174 20.0389 16.5503C20.0994 16.5099 20.1693 16.4741 20.2479 16.4436Z" fill="white"/>
    <defs>
        <clipPath id="clip0_4295_10201">
            <rect width="20" height="20" fill="white" transform="translate(0 1)"/>
        </clipPath>
    </defs>
</svg>