<svg width="506" height="504" viewBox="0 0 506 504" fill="none" xmlns="http://www.w3.org/2000/svg">
    <g clip-path="url(#clip0_4222_9683)">
        <rect y="213" width="72" height="72.1882" rx="36" fill="#6ED69B"/>
        <path d="M35.1326 226.224C35.5452 225.608 36.4509 225.608 36.8635 226.224L51.7337 248.418C51.9688 248.769 51.9688 249.227 51.7337 249.578L36.8635 271.772C36.4508 272.388 35.5452 272.388 35.1326 271.772L20.2623 249.578C20.0273 249.227 20.0273 248.769 20.2623 248.418L35.1326 226.224ZM44.4445 256.272C45.0392 255.384 44.0716 254.284 43.115 254.76L36.4621 258.069C36.1698 258.215 35.8263 258.215 35.534 258.069L28.8811 254.76C27.9245 254.284 26.9568 255.384 27.5516 256.272L35.1326 267.587C35.5452 268.203 36.4509 268.203 36.8635 267.587L44.4445 256.272ZM36.9268 233.494C36.9268 233.019 36.5415 232.633 36.0662 232.633C35.5909 232.633 35.2056 233.019 35.2056 233.494V233.808C35.2056 234.355 34.7801 234.802 34.2403 234.893C33.1605 235.075 32.2473 235.434 31.4763 235.984C30.1462 236.901 29.4943 238.21 29.4943 239.938C29.4943 241.851 30.359 243.305 32.1387 244.299C32.1835 244.324 32.2307 244.345 32.2788 244.363L34.5224 245.186C34.9328 245.336 35.2056 245.727 35.2056 246.164V250.377C35.2056 251.006 34.638 251.515 34.0639 251.259C33.7792 251.132 33.5338 250.972 33.3279 250.777C32.8789 250.346 32.576 249.68 32.4083 248.801C32.3063 248.266 31.8642 247.845 31.3197 247.845H30.38C29.7748 247.845 29.2907 248.36 29.3908 248.957C29.6582 250.552 30.2403 251.778 31.1372 252.636C31.8987 253.358 32.9345 253.822 34.2449 254.041C34.783 254.131 35.2056 254.577 35.2056 255.122V255.598C35.2056 256.073 35.5909 256.458 36.0662 256.458C36.5415 256.458 36.9268 256.073 36.9268 255.598V255.13C36.9268 254.581 37.354 254.133 37.8964 254.05C39.0567 253.871 40.0418 253.513 40.8647 252.976C42.273 252.034 42.9771 250.646 42.9771 248.787C42.9771 246.876 42.0644 245.41 40.2649 244.389C40.1267 244.296 39.2353 243.958 37.6088 243.357C37.1994 243.206 36.9268 242.816 36.9268 242.38V238.521C36.9268 237.896 37.4904 237.384 38.0586 237.643C38.2173 237.716 38.3616 237.8 38.4915 237.896C38.9337 238.21 39.2588 238.681 39.4666 239.319C39.6275 239.812 40.0505 240.2 40.5691 240.2H41.4445C42.0759 240.2 42.5695 239.64 42.4124 239.028C42.0743 237.711 41.493 236.719 40.6561 236.063C39.9399 235.488 39.015 235.09 37.894 234.895C37.3538 234.8 36.9268 234.354 36.9268 233.806V233.494ZM36.9268 246.37C36.9268 246.215 37.0748 246.099 37.2137 246.169C39.0131 246.797 39.9259 247.714 39.9259 248.892C39.9259 249.756 39.5608 250.437 38.8306 250.908C38.6069 251.054 38.3592 251.176 38.0916 251.276C37.4974 251.498 36.9268 250.995 36.9268 250.361V246.37ZM34.0718 237.592C34.6495 237.359 35.2056 237.866 35.2056 238.489V240.936C35.2056 241.666 34.462 242.18 33.8426 241.792C32.9779 241.251 32.5455 240.633 32.5455 239.938C32.5455 238.969 32.8845 238.262 33.5887 237.843C33.7298 237.749 33.8912 237.665 34.0718 237.592Z" fill="white"/>
    </g>
    <rect x="0.749959" y="213.75" width="70.5001" height="70.6883" rx="35.25" stroke="black" stroke-width="1.49992"/>
    <g clip-path="url(#clip1_4222_9683)">
        <rect x="336" y="33" width="64" height="64.1673" rx="32" fill="#6ED69B"/>
        <path d="M367.229 44.7545C367.596 44.2071 368.401 44.2071 368.768 44.7545L381.985 64.4828C382.194 64.7947 382.194 65.2018 381.985 65.5137L368.768 85.242C368.401 85.7894 367.596 85.7894 367.229 85.242L354.011 65.5137C353.802 65.2018 353.802 64.7947 354.011 64.4828L367.229 44.7545ZM375.506 71.4641C376.035 70.6751 375.175 69.6966 374.324 70.1196L368.411 73.0617C368.151 73.191 367.846 73.191 367.586 73.0617L361.672 70.1196C360.822 69.6966 359.962 70.6751 360.49 71.4641L367.229 81.5218C367.596 82.0692 368.401 82.0692 368.768 81.5218L375.506 71.4641ZM368.824 51.2167C368.824 50.7942 368.481 50.4517 368.059 50.4517C367.636 50.4517 367.294 50.7942 367.294 51.2167V51.496C367.294 51.9826 366.916 52.3793 366.436 52.4602C365.476 52.6219 364.664 52.9417 363.979 53.4306C362.797 54.2452 362.217 55.4088 362.217 56.9448C362.217 58.6455 362.986 59.9377 364.568 60.8213C364.608 60.8436 364.649 60.8625 364.692 60.8781L366.687 61.6094C367.051 61.7431 367.294 62.0903 367.294 62.4788V66.2241C367.294 66.7828 366.789 67.2354 366.279 67.0081C366.026 66.8954 365.808 66.7526 365.625 66.5796C365.226 66.1964 364.956 65.6044 364.807 64.8234C364.717 64.348 364.324 63.9731 363.84 63.9731H363.004C362.467 63.9731 362.036 64.4315 362.125 64.962C362.363 66.3797 362.88 67.4697 363.678 68.232C364.354 68.8737 365.275 69.2858 366.44 69.4807C366.918 69.5608 367.294 69.957 367.294 70.442V70.8648C367.294 71.2873 367.636 71.6298 368.059 71.6298C368.481 71.6298 368.824 71.2873 368.824 70.8648V70.4488C368.824 69.961 369.204 69.5628 369.686 69.4886C370.717 69.3299 371.593 69.0118 372.324 68.5345C373.576 67.6967 374.202 66.4633 374.202 64.8109C374.202 63.112 373.391 61.8088 371.791 60.9011C371.668 60.8189 370.876 60.5187 369.43 59.9844C369.066 59.85 368.824 59.5031 368.824 59.1151V55.6851C368.824 55.1297 369.325 54.6744 369.83 54.9052C369.971 54.9697 370.099 55.0445 370.215 55.1295C370.608 55.409 370.897 55.8279 371.081 56.3944C371.224 56.8327 371.6 57.1775 372.061 57.1775H372.84C373.401 57.1775 373.84 56.6798 373.7 56.1362C373.399 54.9657 372.883 54.0834 372.139 53.5004C371.502 52.9892 370.68 52.6355 369.684 52.4619C369.203 52.3782 368.824 51.9814 368.824 51.494V51.2167ZM368.824 62.6627C368.824 62.5245 368.955 62.4217 369.079 62.4837C370.678 63.0422 371.49 63.8567 371.49 64.904C371.49 65.672 371.165 66.2771 370.516 66.696C370.317 66.8258 370.097 66.9341 369.859 67.0229C369.331 67.22 368.824 66.7732 368.824 66.2095V62.6627ZM366.286 54.8595C366.8 54.6526 367.294 55.1034 367.294 55.657V57.8316C367.294 58.4812 366.633 58.9379 366.082 58.5932C365.314 58.1118 364.929 57.5623 364.929 56.9448C364.929 56.0837 365.231 55.4553 365.857 55.083C365.982 54.9991 366.125 54.9242 366.286 54.8595Z" fill="white"/>
    </g>
    <rect x="336.667" y="33.6666" width="62.6667" height="62.834" rx="31.3334" stroke="black" stroke-width="1.33326"/>
    <g clip-path="url(#clip2_4222_9683)">
        <rect x="348" y="412" width="48" height="48.1255" rx="24" fill="#6ED69B"/>
        <path d="M371.422 420.816C371.697 420.405 372.301 420.405 372.576 420.816L382.489 435.612C382.646 435.846 382.646 436.151 382.489 436.385L372.576 451.182C372.301 451.592 371.697 451.592 371.422 451.182L361.508 436.385C361.352 436.151 361.352 435.846 361.508 435.612L371.422 420.816ZM377.63 440.848C378.026 440.256 377.381 439.522 376.743 439.84L372.308 442.046C372.113 442.143 371.884 442.143 371.689 442.046L367.254 439.84C366.616 439.522 365.971 440.256 366.368 440.848L371.422 448.391C371.697 448.802 372.301 448.802 372.576 448.391L377.63 440.848ZM372.618 425.663C372.618 425.346 372.361 425.089 372.044 425.089C371.727 425.089 371.47 425.346 371.47 425.663V425.872C371.47 426.237 371.187 426.534 370.827 426.595C370.107 426.716 369.498 426.956 368.984 427.323C368.097 427.934 367.663 428.807 367.663 429.959C367.663 431.234 368.239 432.203 369.426 432.866C369.456 432.883 369.487 432.897 369.519 432.909L371.015 433.457C371.288 433.557 371.47 433.818 371.47 434.109V436.918C371.47 437.337 371.092 437.677 370.709 437.506C370.519 437.422 370.356 437.314 370.219 437.185C369.919 436.897 369.717 436.453 369.606 435.868C369.538 435.511 369.243 435.23 368.88 435.23H368.253C367.85 435.23 367.527 435.574 367.594 435.972C367.772 437.035 368.16 437.852 368.758 438.424C369.266 438.905 369.956 439.214 370.83 439.361C371.189 439.421 371.47 439.718 371.47 440.081V440.399C371.47 440.715 371.727 440.972 372.044 440.972C372.361 440.972 372.618 440.715 372.618 440.399V440.087C372.618 439.721 372.903 439.422 373.264 439.366C374.038 439.247 374.695 439.009 375.243 438.651C376.182 438.023 376.651 437.097 376.651 435.858C376.651 434.584 376.043 433.607 374.843 432.926C374.751 432.864 374.157 432.639 373.072 432.238C372.8 432.137 372.618 431.877 372.618 431.586V429.014C372.618 428.597 372.994 428.256 373.372 428.429C373.478 428.477 373.574 428.533 373.661 428.597C373.956 428.807 374.172 429.121 374.311 429.546C374.418 429.875 374.7 430.133 375.046 430.133H375.63C376.051 430.133 376.38 429.76 376.275 429.352C376.05 428.474 375.662 427.813 375.104 427.375C374.627 426.992 374.01 426.727 373.263 426.596C372.903 426.534 372.618 426.236 372.618 425.87V425.663ZM372.618 434.247C372.618 434.143 372.716 434.066 372.809 434.113C374.009 434.532 374.617 435.143 374.617 435.928C374.617 436.504 374.374 436.958 373.887 437.272C373.738 437.369 373.573 437.451 373.394 437.517C372.998 437.665 372.618 437.33 372.618 436.907V434.247ZM370.714 428.395C371.1 428.239 371.47 428.578 371.47 428.993V430.624C371.47 431.111 370.975 431.453 370.562 431.195C369.985 430.834 369.697 430.422 369.697 429.959C369.697 429.313 369.923 428.842 370.392 428.562C370.486 428.499 370.594 428.443 370.714 428.395Z" fill="white"/>
    </g>
    <rect x="348.5" y="412.5" width="47.0001" height="47.1255" rx="23.5" stroke="black" stroke-width="0.999946"/>
    <defs>
        <clipPath id="clip0_4222_9683">
            <rect y="213" width="72" height="72.1882" rx="36" fill="white"/>
        </clipPath>
        <clipPath id="clip1_4222_9683">
            <rect x="336" y="33" width="64" height="64.1673" rx="32" fill="white"/>
        </clipPath>
        <clipPath id="clip2_4222_9683">
            <rect x="348" y="412" width="48" height="48.1255" rx="24" fill="white"/>
        </clipPath>
    </defs>
</svg>