<svg width="81" height="80" viewBox="0 0 81 80" fill="none" xmlns="http://www.w3.org/2000/svg">
    <g clip-path="url(#clip0_4222_9655)">
        <rect x="0.681641" width="80" height="80" rx="40" fill="#6ED69B"/>
        <path d="M39.7179 14.6931C40.1763 14.0088 41.1826 14.0088 41.6411 14.6931L58.1636 39.3535C58.4247 39.7433 58.4247 40.2523 58.1636 40.6421L41.6411 65.3025C41.1826 65.9868 40.1763 65.9868 39.7179 65.3025L23.1954 40.6421C22.9342 40.2523 22.9342 39.7433 23.1954 39.3535L39.7179 14.6931ZM50.0644 48.0801C50.7252 47.0938 49.6501 45.8707 48.5872 46.3995L41.1951 50.0772C40.8703 50.2387 40.4886 50.2387 40.1639 50.0772L32.7718 46.3995C31.7089 45.8707 30.6337 47.0938 31.2945 48.0801L39.7179 60.6522C40.1763 61.3365 41.1826 61.3365 41.6411 60.6522L50.0644 48.0801ZM41.7115 22.7709C41.7115 22.2427 41.2833 21.8146 40.7552 21.8146C40.2271 21.8146 39.799 22.2427 39.799 22.7709V23.1199C39.799 23.7282 39.3263 24.2241 38.7265 24.3251C37.5267 24.5273 36.5121 24.9271 35.6553 25.5382C34.1775 26.5564 33.4531 28.0109 33.4531 29.9309C33.4531 32.0568 34.4139 33.6721 36.3914 34.7766C36.4411 34.8044 36.4935 34.828 36.547 34.8476L39.04 35.7617C39.4959 35.9289 39.799 36.3628 39.799 36.8484V41.5301C39.799 42.2284 39.1683 42.7942 38.5304 42.5101C38.2141 42.3693 37.9415 42.1907 37.7127 41.9745C37.2138 41.4954 36.8773 40.7555 36.691 39.7792C36.5776 39.185 36.0864 38.7163 35.4814 38.7163H34.4373C33.7648 38.7163 33.2269 39.2894 33.3381 39.9525C33.6352 41.7246 34.2821 43.0871 35.2786 44.0399C36.1247 44.8421 37.2756 45.3573 38.7315 45.6009C39.3294 45.701 39.799 46.1962 39.799 46.8024V47.331C39.799 47.8591 40.2271 48.2872 40.7552 48.2872C41.2833 48.2872 41.7115 47.8591 41.7115 47.331V46.811C41.7115 46.2013 42.1861 45.7034 42.7888 45.6107C44.078 45.4123 45.1726 45.0148 46.0869 44.4181C47.6517 43.3709 48.4341 41.829 48.4341 39.7636C48.4341 37.64 47.4199 36.0109 45.4205 34.8764C45.2669 34.7736 44.2765 34.3983 42.4692 33.7305C42.0144 33.5624 41.7115 33.1288 41.7115 32.6439V28.3563C41.7115 27.6621 42.3377 27.0929 42.969 27.3815C43.1453 27.4621 43.3057 27.5556 43.4501 27.6619C43.9414 28.0112 44.3025 28.5349 44.5335 29.243C44.7122 29.7908 45.1822 30.2218 45.7585 30.2218H46.7312C47.4327 30.2218 47.9811 29.5997 47.8066 28.9203C47.4309 27.457 46.785 26.3541 45.8551 25.6255C45.0594 24.9864 44.0317 24.5443 42.7862 24.3273C42.1859 24.2227 41.7115 23.7267 41.7115 23.1174V22.7709ZM41.7115 37.0783C41.7115 36.9056 41.8759 36.7771 42.0302 36.8545C44.0296 37.5527 45.0438 38.5709 45.0438 39.88C45.0438 40.84 44.6381 41.5963 43.8268 42.12C43.5782 42.2822 43.303 42.4176 43.0057 42.5286C42.3455 42.775 41.7115 42.2165 41.7115 41.5119V37.0783ZM38.5392 27.3243C39.1811 27.0657 39.799 27.6291 39.799 28.3212V31.0395C39.799 31.8515 38.9728 32.4224 38.2846 31.9914C37.3238 31.3897 36.8434 30.7029 36.8434 29.9309C36.8434 28.8546 37.2201 28.0691 38.0024 27.6037C38.1592 27.4988 38.3386 27.4052 38.5392 27.3243Z" fill="white"/>
    </g>
    <defs>
        <clipPath id="clip0_4222_9655">
            <rect x="0.681641" width="80" height="80" rx="40" fill="white"/>
        </clipPath>
    </defs>
</svg>