<svg width="12" height="13" viewBox="0 0 12 13" fill="none" xmlns="http://www.w3.org/2000/svg">
    <g clip-path="url(#clip0_2065_8414)">
        <path d="M6.00012 0.81662C2.79019 0.81662 0.187622 3.42013 0.187622 6.62912C0.187622 9.83999 2.79019 12.4416 6.00012 12.4416C9.21005 12.4416 11.8126 9.83999 11.8126 6.62912C11.8126 3.42013 9.21005 0.81662 6.00012 0.81662ZM6.00012 3.39474C6.54378 3.39474 6.9845 3.83546 6.9845 4.37912C6.9845 4.92278 6.54378 5.36349 6.00012 5.36349C5.45647 5.36349 5.01575 4.92278 5.01575 4.37912C5.01575 3.83546 5.45647 3.39474 6.00012 3.39474ZM7.31262 9.34787C7.31262 9.50319 7.18669 9.62912 7.03137 9.62912H4.96887C4.81355 9.62912 4.68762 9.50319 4.68762 9.34787V8.78537C4.68762 8.63005 4.81355 8.50412 4.96887 8.50412H5.25012V7.00412H4.96887C4.81355 7.00412 4.68762 6.87819 4.68762 6.72287V6.16037C4.68762 6.00505 4.81355 5.87912 4.96887 5.87912H6.46887C6.62419 5.87912 6.75012 6.00505 6.75012 6.16037V8.50412H7.03137C7.18669 8.50412 7.31262 8.63005 7.31262 8.78537V9.34787Z" fill="#9F9F9F"/>
    </g>
    <defs>
        <clipPath id="clip0_2065_8414">
            <rect width="12" height="12" fill="white" transform="translate(0 0.62912)"/>
        </clipPath>
    </defs>
</svg>