<svg width="20" height="20" viewBox="0 0 20 20" fill="none" xmlns="http://www.w3.org/2000/svg">
    <path d="M2.08331 11.0333V9.59167C2.08331 7.86667 3.49164 6.45833 5.21664 6.45833H14.7833C16.5083 6.45833 17.9166 7.86667 17.9166 9.59167V10.7917H16.2333C15.7666 10.7917 15.3416 10.975 15.0333 11.2917C14.6833 11.6333 14.4833 12.125 14.5333 12.65C14.6083 13.55 15.4333 14.2083 16.3333 14.2083H17.9166V15.2C17.9166 16.925 16.5083 18.3333 14.7833 18.3333H10.2166" stroke="#292D32" stroke-width="1.25" stroke-linecap="round" stroke-linejoin="round"/>
    <path d="M2.08331 10.3417V6.53337C2.08331 5.54171 2.69164 4.65834 3.61664 4.30834L10.2333 1.80834C11.2666 1.41667 12.375 2.18336 12.375 3.2917V6.45835" stroke="#292D32" stroke-width="1.25" stroke-linecap="round" stroke-linejoin="round"/>
    <path d="M18.799 11.6418V13.3585C18.799 13.8168 18.4323 14.1918 17.9657 14.2085H16.3323C15.4323 14.2085 14.6073 13.5501 14.5323 12.6501C14.4823 12.1251 14.6823 11.6335 15.0323 11.2918C15.3406 10.9751 15.7657 10.7918 16.2323 10.7918H17.9657C18.4323 10.8085 18.799 11.1835 18.799 11.6418Z" stroke="#292D32" stroke-width="1.25" stroke-linecap="round" stroke-linejoin="round"/>
    <path d="M5.83331 10H11.6666" stroke="#292D32" stroke-width="1.25" stroke-linecap="round" stroke-linejoin="round"/>
    <path d="M2.5 13.75H6.95C7.48333 13.75 7.91667 14.1833 7.91667 14.7166V15.7833" stroke="#292D32" stroke-width="1.25" stroke-miterlimit="10" stroke-linecap="round" stroke-linejoin="round"/>
    <path d="M3.51667 12.7334L2.5 13.75L3.51667 14.7666" stroke="#292D32" stroke-width="1.25" stroke-miterlimit="10" stroke-linecap="round" stroke-linejoin="round"/>
    <path d="M7.91667 18.15H3.46667C2.93334 18.15 2.5 17.7167 2.5 17.1833V16.1167" stroke="#292D32" stroke-width="1.25" stroke-miterlimit="10" stroke-linecap="round" stroke-linejoin="round"/>
    <path d="M6.90106 19.1669L7.91773 18.1503L6.90106 17.1336" stroke="#292D32" stroke-width="1.25" stroke-miterlimit="10" stroke-linecap="round" stroke-linejoin="round"/>
</svg>