<svg width="41" height="40" viewBox="0 0 41 40" fill="none" xmlns="http://www.w3.org/2000/svg">
    <path d="M20.5002 3.33333C11.3002 3.33333 3.8335 10.8 3.8335 20C3.8335 29.2 11.3002 36.6667 20.5002 36.6667C29.7002 36.6667 37.1668 29.2 37.1668 20C37.1668 10.8 29.7002 3.33333 20.5002 3.33333ZM11.5002 18.7167C11.7835 16.7333 12.6668 14.95 14.0502 13.55C17.3835 10.2333 22.6335 10.05 26.2002 12.95V11.3667C26.2002 10.6833 26.7668 10.1167 27.4502 10.1167C28.1335 10.1167 28.7002 10.6833 28.7002 11.3667V15.8167C28.7002 16.5 28.1335 17.0667 27.4502 17.0667H23.0002C22.3168 17.0667 21.7502 16.5 21.7502 15.8167C21.7502 15.1333 22.3168 14.5667 23.0002 14.5667H24.2502C21.6668 12.7667 18.1002 13.0167 15.8002 15.3167C14.8002 16.3167 14.1668 17.6167 13.9502 19.0667C13.8668 19.6833 13.3335 20.1333 12.7168 20.1333C12.6502 20.1333 12.6002 20.1333 12.5335 20.1167C11.8835 20.0333 11.4002 19.4 11.5002 18.7167ZM26.9502 26.45C25.1668 28.2333 22.8335 29.1167 20.5002 29.1167C18.4668 29.1167 16.4502 28.4 14.7835 27.05V28.6167C14.7835 29.3 14.2168 29.8667 13.5335 29.8667C12.8502 29.8667 12.2835 29.3 12.2835 28.6167V24.1667C12.2835 23.4833 12.8502 22.9167 13.5335 22.9167H17.9835C18.6668 22.9167 19.2335 23.4833 19.2335 24.1667C19.2335 24.85 18.6668 25.4167 17.9835 25.4167H16.7335C19.3168 27.2167 22.8835 26.9667 25.1835 24.6667C26.1835 23.6667 26.8168 22.3667 27.0335 20.9167C27.1335 20.2333 27.7502 19.75 28.4502 19.85C29.1335 19.95 29.6002 20.5833 29.5168 21.2667C29.2168 23.2833 28.3335 25.0667 26.9502 26.45Z" fill="#98C5FA"/>
</svg>