<svg width="20" height="20" viewBox="0 0 20 20" fill="none" xmlns="http://www.w3.org/2000/svg">
    <path d="M1.66669 14.2167H10" stroke="#292D32" stroke-width="1.25" stroke-miterlimit="10" stroke-linecap="round" stroke-linejoin="round"/>
    <path d="M3.51666 11.25H8.15004C9.63338 11.25 10 11.6167 10 13.0833V16.5083C10 17.975 9.63338 18.3417 8.15004 18.3417H3.51666C2.03333 18.3417 1.66669 17.975 1.66669 16.5083V13.0833C1.66669 11.6167 2.03333 11.25 3.51666 11.25Z" stroke="#292D32" stroke-width="1.25" stroke-linecap="round" stroke-linejoin="round"/>
    <path d="M18.3333 12.5C18.3333 15.725 15.725 18.3333 12.5 18.3333L13.375 16.875" stroke="#292D32" stroke-width="1.25" stroke-linecap="round" stroke-linejoin="round"/>
    <path d="M1.66669 7.5C1.66669 4.27501 4.27502 1.66667 7.50002 1.66667L6.62503 3.12501" stroke="#292D32" stroke-width="1.25" stroke-linecap="round" stroke-linejoin="round"/>
    <path d="M15.4167 9.16667C17.4878 9.16667 19.1667 7.48774 19.1667 5.41667C19.1667 3.3456 17.4878 1.66667 15.4167 1.66667C13.3456 1.66667 11.6667 3.3456 11.6667 5.41667C11.6667 7.48774 13.3456 9.16667 15.4167 9.16667Z" stroke="#292D32" stroke-width="1.25" stroke-linecap="round" stroke-linejoin="round"/>
</svg>