<svg width="24" height="25" viewBox="0 0 24 25" fill="none" xmlns="http://www.w3.org/2000/svg">
    <path d="M7.55016 21.9292C16.6045 21.9292 21.5583 14.4259 21.5583 7.92106C21.5583 7.71012 21.5536 7.4945 21.5442 7.28356C22.5079 6.58666 23.3395 5.72345 24 4.7345C23.1025 5.1338 22.1496 5.39458 21.1739 5.50794C22.2013 4.89211 22.9705 3.92467 23.3391 2.78497C22.3726 3.35776 21.3156 3.76181 20.2134 3.97981C19.4708 3.19076 18.489 2.66832 17.4197 2.49325C16.3504 2.31818 15.2532 2.50025 14.2977 3.0113C13.3423 3.52234 12.5818 4.3339 12.1338 5.32051C11.6859 6.30712 11.5754 7.41381 11.8195 8.4695C9.86249 8.37129 7.94794 7.8629 6.19998 6.9773C4.45203 6.09169 2.90969 4.84864 1.67297 3.32872C1.0444 4.41244 0.852057 5.69484 1.13503 6.91529C1.418 8.13574 2.15506 9.20265 3.19641 9.89919C2.41463 9.87436 1.64998 9.66388 0.965625 9.28512V9.34606C0.964925 10.4833 1.3581 11.5858 2.07831 12.466C2.79852 13.3462 3.80132 13.9498 4.91625 14.1742C4.19206 14.3723 3.43198 14.4012 2.69484 14.2586C3.00945 15.2366 3.62157 16.0921 4.44577 16.7055C5.26997 17.319 6.26512 17.6598 7.29234 17.6804C5.54842 19.0503 3.39417 19.7933 1.17656 19.7898C0.783287 19.7892 0.390399 19.7651 0 19.7176C2.25286 21.1629 4.87353 21.9306 7.55016 21.9292Z" fill="white"/>
</svg>