<svg width="20" height="20" viewBox="0 0 20 20" fill="none" xmlns="http://www.w3.org/2000/svg">
    <path d="M17.425 9.26666C17.425 13.3417 14.4666 17.1583 10.425 18.275C10.15 18.35 9.84995 18.35 9.57495 18.275C5.53328 17.1583 2.57495 13.3417 2.57495 9.26666V5.60832C2.57495 4.92498 3.09163 4.14998 3.7333 3.89165L8.37494 1.99168C9.41661 1.56668 10.5916 1.56668 11.6333 1.99168L16.275 3.89165C16.9083 4.14998 17.4333 4.92498 17.4333 5.60832L17.425 9.26666Z" stroke="#171717" stroke-width="1.25" stroke-linecap="round" stroke-linejoin="round"/>
    <path d="M9.99998 10.4167C10.9205 10.4167 11.6666 9.67047 11.6666 8.74999C11.6666 7.82952 10.9205 7.08333 9.99998 7.08333C9.07951 7.08333 8.33331 7.82952 8.33331 8.74999C8.33331 9.67047 9.07951 10.4167 9.99998 10.4167Z" stroke="#171717" stroke-width="1.25" stroke-miterlimit="10" stroke-linecap="round" stroke-linejoin="round"/>
    <path d="M10 10.4167V12.9167" stroke="#171717" stroke-width="1.25" stroke-miterlimit="10" stroke-linecap="round" stroke-linejoin="round"/>
</svg>