<svg width="33" height="32" viewBox="0 0 33 32" fill="none" xmlns="http://www.w3.org/2000/svg">
    <path d="M16.3333 2.66667C8.98667 2.66667 3 8.65334 3 16C3 23.3467 8.98667 29.3333 16.3333 29.3333C23.68 29.3333 29.6667 23.3467 29.6667 16C29.6667 8.65334 23.68 2.66667 16.3333 2.66667ZM20.8133 19.0667C21.2 19.4533 21.2 20.0933 20.8133 20.48C20.6133 20.68 20.36 20.7733 20.1067 20.7733C19.8533 20.7733 19.6 20.68 19.4 20.48L16.3333 17.4133L13.2667 20.48C13.0667 20.68 12.8133 20.7733 12.56 20.7733C12.3067 20.7733 12.0533 20.68 11.8533 20.48C11.4667 20.0933 11.4667 19.4533 11.8533 19.0667L14.92 16L11.8533 12.9333C11.4667 12.5467 11.4667 11.9067 11.8533 11.52C12.24 11.1333 12.88 11.1333 13.2667 11.52L16.3333 14.5867L19.4 11.52C19.7867 11.1333 20.4267 11.1333 20.8133 11.52C21.2 11.9067 21.2 12.5467 20.8133 12.9333L17.7467 16L20.8133 19.0667Z" fill="#EB5757"/>
</svg>